<?xml version="1.0" encoding="utf-8"?>
<!-- Generator: Adobe Illustrator 16.0.0, SVG Export Plug-In . SVG Version: 6.00 Build 0)  -->
<!DOCTYPE svg PUBLIC "-//W3C//DTD SVG 1.1//EN" "http://www.w3.org/Graphics/SVG/1.1/DTD/svg11.dtd">
<svg version="1.1" xmlns="http://www.w3.org/2000/svg" xmlns:xlink="http://www.w3.org/1999/xlink" x="0px" y="0px" width="256px"
	 height="256px" viewBox="0 0 256 256" enable-background="new 0 0 256 256" xml:space="preserve">
<g id="Speaker" display="none">
	
		<polygon id="Speaker_1_" display="inline" fill="none" stroke="#000000" stroke-width="12" stroke-linejoin="round" stroke-miterlimit="10" points="
		133.5,215.101 61.75,168 8.75,168 8.75,88 61.75,88 133.5,40.899 	"/>
	
		<path id="Low" display="inline" fill="none" stroke="#000000" stroke-width="12" stroke-linecap="round" stroke-linejoin="round" stroke-miterlimit="10" d="
		M166.806,86c0,0,12.528,15.833,12.528,40.167s-12.528,43.823-12.528,43.823"/>
	
		<path id="Medium" display="inline" fill="none" stroke="#000000" stroke-width="12" stroke-linecap="round" stroke-linejoin="round" stroke-miterlimit="10" d="
		M188.479,57c0,0,21.183,26.769,21.183,67.91c0,41.141-21.183,74.089-21.183,74.089"/>
	
		<path id="High" display="inline" fill="none" stroke="#000000" stroke-width="12" stroke-linecap="round" stroke-linejoin="round" stroke-miterlimit="10" d="
		M216.737,35.517c0,0,27.944,35.316,27.944,89.593s-27.944,97.75-27.944,97.75"/>
</g>
<g id="Speaker_outline" display="none">
	<path display="inline" d="M133.5,221.101c-1.149,0-2.296-0.33-3.293-0.984L59.957,174H8.75c-3.313,0-6-2.687-6-6V88
		c0-3.313,2.687-6,6-6h51.207l70.25-46.116c1.844-1.211,4.203-1.312,6.143-0.264c1.94,1.047,3.15,3.075,3.15,5.28v174.201
		c0,2.205-1.21,4.232-3.15,5.28C135.458,220.862,134.479,221.101,133.5,221.101z M14.75,162h47c1.17,0,2.314,0.342,3.292,0.984
		l62.458,41V52.016l-62.458,41C64.064,93.658,62.92,94,61.75,94h-47V162z"/>
	<path display="inline" d="M166.8,175.99c-1.11,0-2.234-0.309-3.238-0.954c-2.788-1.792-3.595-5.504-1.803-8.291
		c0.109-0.173,11.575-18.406,11.575-40.579c0-21.992-11.121-36.301-11.233-36.443c-2.057-2.599-1.616-6.372,0.982-8.428
		c2.598-2.057,6.371-1.617,8.428,0.982c0.564,0.713,13.823,17.77,13.823,43.89c0,25.799-12.931,46.21-13.481,47.067
		C170.706,175.018,168.773,175.99,166.8,175.99z"/>
	<path display="inline" d="M188.473,205c-1.111,0-2.234-0.309-3.239-0.954c-2.787-1.792-3.594-5.504-1.802-8.292
		c0.199-0.311,20.229-32.06,20.229-70.844c0-38.607-19.688-63.935-19.888-64.187c-2.057-2.599-1.616-6.372,0.981-8.428
		c2.602-2.057,6.373-1.616,8.429,0.982c0.918,1.16,22.478,28.897,22.478,71.633c0,42.416-21.231,75.928-22.136,77.334
		C192.379,204.027,190.446,205,188.473,205z"/>
	<path display="inline" d="M216.731,228.861c-1.11,0-2.234-0.309-3.238-0.954c-2.788-1.791-3.595-5.504-1.803-8.291
		c0.267-0.418,26.991-42.736,26.991-94.506c0-51.593-26.383-85.533-26.649-85.87c-2.057-2.599-1.616-6.372,0.982-8.428
		c2.599-2.057,6.371-1.616,8.428,0.982c1.194,1.509,29.239,37.593,29.239,93.316c0,55.402-27.717,99.16-28.897,100.995
		C220.638,227.889,218.705,228.861,216.731,228.861z"/>
</g>
<g id="Muted">
	<path d="M160.503,221.101c-1.717,0-3.421-0.732-4.608-2.153L10.395,44.746c-2.125-2.543-1.785-6.327,0.759-8.451
		c2.544-2.125,6.328-1.784,8.451,0.759l145.5,174.201c2.124,2.544,1.784,6.327-0.759,8.452
		C163.224,220.644,161.859,221.101,160.503,221.101z"/>
	<path d="M127.5,203.984l-62.458-41C64.064,162.342,62.92,162,61.75,162h-47V94h28.967L33.694,82H8.75c-3.313,0-6,2.687-6,6v80
		c0,3.313,2.687,6,6,6h51.207l70.25,46.116c0.997,0.654,2.144,0.984,3.293,0.984c0.979,0,1.958-0.238,2.85-0.72
		c1.94-1.048,3.15-3.075,3.15-5.28v-6.423l-12-14.367V203.984z"/>
	<path d="M127.5,52.016v104.856l12,14.367V40.899c0-2.205-1.21-4.232-3.15-5.28c-1.939-1.047-4.299-0.947-6.143,0.264L63.19,79.877
		l7.744,9.271L127.5,52.016z"/>
</g>
</svg>
